<?xml version="1.0" encoding="UTF-8"?>
<svg id="Layer_4" data-name="Layer 4" xmlns="http://www.w3.org/2000/svg" viewBox="0 0 80 80">
  <defs>
    <style>
      .cls-1 {
        fill: #f2f2f2;
      }
    </style>
  </defs>
  <path class="cls-1" d="M61.43,50.75l5.94-1.37c1.03-.21,1.77-1.11,1.77-2.16v-7.68c0-1.05-.74-1.95-1.77-2.16l-5.37-1.25c-.89-.18-1.62-.78-1.97-1.62v-.03c-.36-.84-.27-1.79.24-2.55l3.33-5c.58-.87.47-2.03-.28-2.78l-5.43-5.43c-.74-.74-1.9-.86-2.78-.27l-5.61,3.74c-.53.36-1.21.43-1.81.19l-.04-.02c-.62-.24-1.08-.79-1.21-1.44l-.99-4.95c-.21-1.03-1.11-1.77-2.16-1.77h-7.68c-1.05,0-1.95.74-2.16,1.77l-.93,4.64c-.18.89-.79,1.64-1.62,1.99h-.03c-.86.38-1.84.28-2.62-.23l-4.41-2.94c-.87-.58-2.03-.47-2.78.27l-5.43,5.43c-.74.74-.86,1.9-.27,2.78l3.44,5.15c.34.51.41,1.16.18,1.73v.03c-.25.59-.76,1.02-1.39,1.15l-4.98,1c-1.03.21-1.77,1.11-1.77,2.16v7.68c0,1.05.74,1.95,1.77,2.16l5.08,1.02c.56.11,1.03.5,1.23,1.03v.02c.21.51.14,1.08-.16,1.54l-3.28,4.93c-.58.87-.47,2.03.28,2.78l5.43,5.43c.74.74,1.9.86,2.78.27l3.67-2.44c.92-.61,2.08-.69,3.09-.25.03.01.06.02.08.04.97.42,1.69,1.28,1.9,2.32l.87,4.37c.21,1.03,1.11,1.77,2.16,1.77h7.68c1.05,0,1.95-.74,2.16-1.77l.97-4.83c.15-.77.68-1.4,1.4-1.7h.02c.71-.3,1.53-.22,2.17.21l3.53,2.35c.87.58,2.03.47,2.78-.27l5.43-5.43c.74-.74.86-1.9.27-2.78l-2.23-3.34c-.42-.63-.49-1.44-.18-2.13v-.02c.32-.68.93-1.17,1.67-1.32ZM50.63,42.42c.33,6.57-5.06,11.96-11.63,11.63-5.62-.28-10.19-4.86-10.48-10.48-.33-6.57,5.06-11.96,11.63-11.63,5.62.28,10.19,4.86,10.48,10.48Z"/>
</svg>