<?xml version="1.0" encoding="UTF-8"?>
<svg id="Layer_1" data-name="Layer 1" xmlns="http://www.w3.org/2000/svg" viewBox="0 0 80 80">
  <defs>
    <style>
      .cls-1, .cls-2 {
        fill: #f2f2f2;
      }

      .cls-2 {
        stroke: #fff;
        stroke-miterlimit: 10;
        stroke-width: .51px;
      }
    </style>
  </defs>
  <path class="cls-1" d="M40.09,17.12c-13.3,0-24.07,10.43-24.07,23.3s10.78,23.3,24.07,23.3,24.07-10.43,24.07-23.3-10.78-23.3-24.07-23.3ZM40,62.68c-8.23,0-14.9-9.93-14.9-22.18s6.67-22.18,14.9-22.18,14.9,9.93,14.9,22.18-6.67,22.18-14.9,22.18Z"/>
  <path class="cls-1" d="M22.26,57.49c0-5.2-4.08-9.42-9.11-9.42s-9.11,4.22-9.11,9.42,4.08,9.42,9.11,9.42,9.11-4.22,9.11-9.42ZM4.43,57.45c0-3.22,3.88-5.83,8.68-5.83s8.68,2.61,8.68,5.83-3.88,5.83-8.68,5.83-8.68-2.61-8.68-5.83Z"/>
  <path class="cls-1" d="M76.44,57.61c0-5.2-4.08-9.42-9.11-9.42s-9.11,4.22-9.11,9.42,4.08,9.42,9.11,9.42,9.11-4.22,9.11-9.42ZM58.62,57.57c0-3.22,3.88-5.83,8.68-5.83s8.68,2.61,8.68,5.83-3.88,5.83-8.68,5.83-8.68-2.61-8.68-5.83Z"/>
  <rect class="cls-2" x="38.03" y="11.74" width="4.88" height="4.88" transform="translate(1.83 32.77) rotate(-45)"/>
</svg>